Coordinates
version=1
nRows=29
nColumns=24
inDegrees=yes

Units are S.I. units (second, meters, Newtons, ...)
Angles are in degrees.

endheader
time	pelvis_tilt	pelvis_list	pelvis_rotation	pelvis_tx	pelvis_ty	pelvis_tz	hip_flexion_r	hip_adduction_r	hip_rotation_r	knee_angle_r	ankle_angle_r	subtalar_angle_r	mtp_angle_r	hip_flexion_l	hip_adduction_l	hip_rotation_l	knee_angle_l	ankle_angle_l	subtalar_angle_l	mtp_angle_l	lumbar_extension	lumbar_bending	lumbar_rotation
      1.46000000	     13.24037383	     -7.67317758	      3.81371610	     -0.19787684	      0.96218148	     -0.03694520	      5.32427042	      6.61422605	    -17.27629641	    -22.76179093	     13.45651117	    -16.38705368	     23.19089459	    -20.14624744	     -5.47570366	    -11.66108032	     -9.64826980	     24.79010326	     -2.96765086	     13.17091836	    -21.74170401	      8.49618862	      1.74075204
      1.46500000	     13.50774952	     -7.84844607	      4.15225270	     -0.19160708	      0.96171943	     -0.03686543	      4.61665238	      7.00385487	    -18.16152584	    -20.05442162	     13.06452880	    -15.46245653	     23.72883718	    -20.79252211	     -5.84049903	    -11.77680473	     -9.68323921	     25.09948860	     -2.55756191	     13.08619382	    -21.89571527	      8.79556142	      1.56808005
      1.47000000	     13.74864322	     -7.97391096	      4.46866689	     -0.18532129	      0.96113737	     -0.03671397	      3.93668693	      7.36696627	    -19.03677417	    -17.36241534	     12.63445335	    -14.39492945	     24.37564123	    -21.41108699	     -6.15422840	    -11.89215053	     -9.72685241	     25.43338640	     -2.15279116	     12.99513135	    -22.02113881	      9.03297293	      1.37166404
      1.47500000	     13.93931972	     -8.04783302	      4.77777223	     -0.17900165	      0.96041163	     -0.03649708	      3.31350553	      7.69793332	    -19.93417747	    -14.70330329	     12.18309463	    -13.22405937	     25.05183225	    -21.97314989	     -6.42249101	    -11.98780713	     -9.78012273	     25.73479613	     -1.74271928	     12.91200966	    -22.08678986	      9.20866496	      1.14722071
      1.48000000	     14.06689554	     -8.08199259	      5.03971808	     -0.17269780	      0.95950419	     -0.03614091	      2.77342204	      8.01304639	    -20.74793808	    -12.08619664	     11.47004599	    -12.22958684	     27.71555165	    -22.45306490	     -6.64763968	    -12.12518433	     -9.88364521	     26.16192560	     -1.26216085	     12.42670409	    -22.09147704	      9.31918569	      0.93665659
      1.48500000	     14.08726927	     -8.02776446	      5.31950868	     -0.16650053	      0.95840671	     -0.03577772	      2.40448073	      8.22654407	    -21.58919987	     -9.65056433	     11.04399401	    -10.93823770	     27.87777993	    -22.78474896	     -6.78780116	    -12.04316266	    -10.02134712	     26.49232148	     -0.99232880	     12.46368933	    -21.98913741	      9.33606885	      0.65237670
      1.49000000	     14.12828788	     -7.93281504	      5.47726976	     -0.16023821	      0.95728050	     -0.03526602	      2.05732545	      8.39127009	    -22.40283064	     -7.39800181	     10.66655129	     -9.36823310	     28.24118143	    -23.20205197	     -6.84139082	    -12.15699016	    -10.08983337	     26.74231716	     -0.64646529	     12.47255345	    -21.92479774	      9.27269098	      0.48473787
      1.49500000	     14.06323956	     -7.80810389	      5.62930882	     -0.15409547	      0.95594471	     -0.03468351	      1.88337865	      8.51787803	    -23.12140710	     -5.31194339	     10.32835244	     -7.92496299	     28.62925047	    -23.45489146	     -6.87132752	    -12.14648521	    -10.24804859	     27.06946902	     -0.34927936	     12.48413081	    -21.75928964	      9.16827999	      0.29932723
      1.50000000	     13.95171481	     -7.62768158	      5.70780790	     -0.14800831	      0.95455635	     -0.03399910	      1.82133681	      8.56319359	    -23.81076688	     -3.43674419	     10.00268596	     -6.38258953	     29.13043891	    -23.67062944	     -6.81443732	    -12.16918171	    -10.39837496	     27.32084865	     -0.08132707	     12.47063020	    -21.56597411	      8.97729810	      0.16406027
      1.50500000	     13.80345382	     -7.46051940	      5.75223073	     -0.14194395	      0.95308556	     -0.03326123	      1.83756562	      8.61110632	    -24.39335775	     -1.71208593	      9.68518310	     -4.93294429	     29.97191606	    -23.84171928	     -6.75429216	    -12.15393914	    -10.56760303	     27.58061852	      0.05493612	     12.40353555	    -21.33827303	      8.79157698	      0.08617032
      1.51000000	     13.58169149	     -7.25622024	      5.80592266	     -0.13593083	      0.95152505	     -0.03247452	      1.96786311	      8.60574146	    -24.89596292	     -0.13804202	      9.39750952	     -3.67831263	     30.36925698	    -23.90529528	     -6.67517504	    -12.12247314	    -10.78503862	     27.82701815	      0.36126514	     12.42297327	    -21.03831161	      8.56065420	     -0.05986455
      1.51500000	     13.36062773	     -7.05237681	      5.84862275	     -0.12995979	      0.94996247	     -0.03167052	      2.12773228	      8.58448294	    -25.32326166	      1.28497871	      9.12405820	     -2.50610619	     30.68452808	    -23.95777176	     -6.59126882	    -12.06428730	    -11.02729428	     28.10827270	      0.57604114	     12.46068131	    -20.74901371	      8.32982827	     -0.20172192
      1.52000000	     13.14817887	     -6.85659966	      5.87683738	     -0.12397875	      0.94842344	     -0.03084200	      2.30495689	      8.55435211	    -25.67844150	      2.54949565	      8.90672302	     -1.42440253	     30.97734994	    -24.02679302	     -6.51040987	    -12.00273655	    -11.26069301	     28.32233626	      0.76063949	     12.51066035	    -20.47247705	      8.10342360	     -0.29405943
      1.52500000	     12.90233286	     -6.68768776	      5.91612038	     -0.11797831	      0.94685734	     -0.03002606	      2.52719780	      8.53483396	    -25.91667033	      3.69649756	      8.66272065	     -0.60905296	     31.14128457	    -24.04494977	     -6.46270936	    -11.92031948	    -11.52095181	     28.54346683	      0.92434466	     12.58026289	    -20.15547649	      7.91401576	     -0.41107580
      1.53000000	     12.69036512	     -6.50828175	      5.95969925	     -0.11197788	      0.94537404	     -0.02922931	      2.73795799	      8.48075339	    -26.14466094	      4.67011570	      8.50063964	      0.21052538	     31.31549525	    -24.09879479	     -6.40837305	    -11.81722651	    -11.78369052	     28.71527606	      1.10356316	     12.67425346	    -19.87919755	      7.71786941	     -0.50972018
      1.53500000	     12.51481611	     -6.34521792	      6.01838890	     -0.10593898	      0.94396598	     -0.02846620	      2.91199562	      8.42921588	    -26.28606835	      5.51827515	      8.35243602	      0.83174714	     31.44568213	    -24.19375820	     -6.37748728	    -11.69339569	    -12.04152971	     28.85422536	      1.25975269	     12.78615286	    -19.63855375	      7.55081231	     -0.60577092
      1.54000000	     12.37385567	     -6.19442630	      6.08721740	     -0.09987739	      0.94264247	     -0.02775299	      3.07496845	      8.36377145	    -26.43276461	      6.18522615	      8.27705045	      1.44715365	     31.63502885	    -24.32333623	     -6.36237536	    -11.55640926	    -12.30352778	     28.98745341	      1.38226851	     13.00559372	    -19.43572600	      7.40857955	     -0.70478758
      1.54500000	     12.24258916	     -6.07723067	      6.19692203	     -0.09372288	      0.94138285	     -0.02708593	      3.20573596	      8.32364687	    -26.45223196	      6.77130961	      8.14927187	      1.70048887	     31.68960933	    -24.45912504	     -6.40166037	    -11.37899326	    -12.56711526	     29.06014827	      1.51335777	     13.13765115	    -19.22731364	      7.31724770	     -0.83765822
      1.55000000	     12.15975737	     -5.99112922	      6.34043710	     -0.08752353	      0.94022109	     -0.02651870	      3.30382670	      8.29122284	    -26.49529697	      7.18849687	      8.08914058	      1.92713219	     31.76819175	    -24.63374841	     -6.48906472	    -11.18455924	    -12.85090923	     29.12651615	      1.65698651	     13.34286861	    -19.06397547	      7.28386850	     -0.98202258
      1.55500000	     12.10578269	     -5.91192259	      6.44458984	     -0.08124524	      0.93915405	     -0.02594864	      3.37004384	      8.24427323	    -26.40593911	      7.46144160	      8.04809588	      2.04226924	     31.79229762	    -24.86602006	     -6.56115076	    -11.01767017	    -13.10077249	     29.15346355	      1.74638638	     13.43005892	    -18.93094410	      7.25660565	     -1.09096484
      1.56000000	     12.13603152	     -5.89433405	      6.68828582	     -0.07486390	      0.93825727	     -0.02554996	      3.36100607	      8.25983977	    -26.57535083	      7.60165375	      8.00692316	      2.21375768	     32.32071289	    -25.14308701	     -6.77325586	    -10.78177333	    -13.39336442	     29.01472274	      1.84036753	     15.17858867	    -18.86003884	      7.34103161	     -1.26810800
      1.56500000	     12.14917282	     -5.87834800	      6.92320170	     -0.06846165	      0.93739317	     -0.02518216	      3.35735826	      8.25151121	    -26.50113132	      7.63247685	      7.95746235	      1.98674140	     32.32733781	    -25.39571800	     -6.97428117	    -10.46726076	    -13.70409560	     28.96260695	      1.90099520	     15.29670004	    -18.76963984	      7.43200524	     -1.46060883
      1.57000000	     12.22057606	     -5.90728115	      7.13504877	     -0.06197972	      0.93664152	     -0.02480447	      3.28403105	      8.28366198	    -26.25072967	      7.55741664	      7.85089163	      1.45993922	     32.48220332	    -25.72094906	     -7.21644981	    -10.21581151	    -14.00281379	     28.82342379	      1.92422888	     16.03982704	    -18.73730729	      7.57728870	     -1.60383815
      1.57500000	     12.30534530	     -5.92973538	      7.44785304	     -0.05545352	      0.93597936	     -0.02457447	      3.21890874	      8.28889702	    -26.23364993	      7.32812693	      7.83910460	      1.23636252	     32.52372459	    -25.99543166	     -7.50738503	     -9.85099084	    -14.40001731	     28.73334301	      2.04235353	     16.23872090	    -18.70165909	      7.74648287	     -1.85704702
      1.58000000	     12.44955410	     -6.00446009	      7.67669768	     -0.04883484	      0.93542998	     -0.02424710	      3.05981149	      8.35787045	    -25.84976710	      7.05898527	      7.64036850	      0.42164898	     32.85614728	    -26.37567525	     -7.81315499	     -9.59021078	    -14.73336442	     28.44232737	      1.99384679	     17.55126091	    -18.73227956	      7.96162334	     -1.98480399
      1.58500000	     12.57943161	     -6.06890208	      8.05022568	     -0.04223070	      0.93493564	     -0.02412462	      2.95938412	      8.39089884	    -25.83655379	      6.62179748	      7.56368077	      0.08811872	     32.91231521	    -26.62622481	     -8.18570998	     -9.14547764	    -15.24004789	     28.29604288	      2.08905243	     17.81051215	    -18.72758313	      8.20807464	     -2.27692920
      1.59000000	     12.73413765	     -6.17355064	      8.28830900	     -0.03554225	      0.93451233	     -0.02380363	      2.80001257	      8.47847337	    -25.31391598	      6.16688459	      7.23921898	     -1.03013169	     33.22389888	    -26.95694780	     -8.53490247	     -8.83736854	    -15.67355163	     27.92251792	      1.99162551	     19.09401514	    -18.75738306	      8.46394919	     -2.40371152
      1.59500000	     12.89195556	     -6.25573172	      8.59887694	     -0.02891516	      0.93414815	     -0.02356214	      2.65641233	      8.53157920	    -24.91278081	      5.61563032	      6.94621751	     -1.95406782	     33.79915457	    -27.18461952	     -8.90705718	     -8.41554202	    -16.27345884	     27.54433827	      1.88144497	     20.95929981	    -18.79249861	      8.71729976	     -2.63018025
      1.60000000	     13.05926127	     -6.38759276	      8.92210675	     -0.02217658	      0.93386192	     -0.02333503	      2.51725810	      8.64397175	    -24.57950983	      4.99150450	      6.57940097	     -2.85989839	     34.03169519	    -27.41063261	     -9.33713511	     -7.97680527	    -16.88728331	     27.16252931	      1.84538635	     21.84407745	    -18.81430394	      9.03088145	     -2.81980004
